<svg viewBox="0 0 960 560" xmlns="http://www.w3.org/2000/svg" role="img" font-family="system-ui,-apple-system,sans-serif">
  <title>AI Corporate — 20 Universal Agents</title>
  <desc>Org chart showing 20 starter agents across senior, specialist, and worker roles for Claude Code and Codex.</desc>

  <!-- Background -->
  <rect width="960" height="560" fill="#ffffff"/>

  <!-- Title block -->
  <text x="480" y="32" text-anchor="middle" font-size="18" font-weight="700" fill="#111827" letter-spacing="-0.4">AI Corporate — 20 Universal Agents</text>
  <text x="480" y="50" text-anchor="middle" font-size="11" fill="#6b7280">Claude Code + Codex · same role-based governance</text>

  <!-- Stats row -->
  <rect x="40" y="62" width="880" height="36" rx="6" fill="#f8fafc" stroke="#e2e8f0" stroke-width="1"/>
  <text x="170" y="80" text-anchor="middle" font-size="18" font-weight="700" fill="#111827">20</text>
  <text x="170" y="92" text-anchor="middle" font-size="8.5" fill="#6b7280" letter-spacing="0.3">TOTAL AGENTS</text>
  <line x1="270" y1="68" x2="270" y2="92" stroke="#e2e8f0" stroke-width="1"/>
  <circle cx="315" cy="80" r="5" fill="#6366f1"/>
  <text x="335" y="76" font-size="15" font-weight="700" fill="#6366f1">4</text>
  <text x="335" y="90" font-size="8.5" fill="#6b7280">Senior</text>
  <line x1="430" y1="68" x2="430" y2="92" stroke="#e2e8f0" stroke-width="1"/>
  <circle cx="475" cy="80" r="5" fill="#0d9488"/>
  <text x="495" y="76" font-size="15" font-weight="700" fill="#0d9488">10</text>
  <text x="495" y="90" font-size="8.5" fill="#6b7280">Specialist</text>
  <line x1="600" y1="68" x2="600" y2="92" stroke="#e2e8f0" stroke-width="1"/>
  <circle cx="645" cy="80" r="5" fill="#ea580c"/>
  <text x="665" y="76" font-size="15" font-weight="700" fill="#ea580c">6</text>
  <text x="665" y="90" font-size="8.5" fill="#6b7280">Worker</text>

  <!-- SENIOR ROLE -->
  <line x1="40" y1="110" x2="920" y2="110" stroke="#e5e7eb" stroke-width="1"/>
  <text x="50" y="128" font-size="10" font-weight="700" fill="#4338ca" letter-spacing="0.8">SENIOR LEADERSHIP · top model for judgment · architecture · approval authority · irreversible decisions</text>

  <rect x="50" y="136" width="195" height="50" rx="7" fill="#eef2ff" stroke="#c7d2fe" stroke-width="1.5"/>
  <text x="147" y="156" text-anchor="middle" font-size="12" font-weight="700" fill="#4338ca">Ananya</text>
  <text x="147" y="170" text-anchor="middle" font-size="9" fill="#6366f1">senior-hr</text>
  <text x="147" y="181" text-anchor="middle" font-size="8" fill="#818cf8">route tasks · approve recruitment</text>

  <rect x="261" y="136" width="195" height="50" rx="7" fill="#eef2ff" stroke="#c7d2fe" stroke-width="1.5"/>
  <text x="358" y="156" text-anchor="middle" font-size="12" font-weight="700" fill="#4338ca">Shreya</text>
  <text x="358" y="170" text-anchor="middle" font-size="9" fill="#6366f1">senior-planner</text>
  <text x="358" y="181" text-anchor="middle" font-size="8" fill="#818cf8">multi-phase decomposition</text>

  <rect x="472" y="136" width="195" height="50" rx="7" fill="#eef2ff" stroke="#c7d2fe" stroke-width="1.5"/>
  <text x="569" y="156" text-anchor="middle" font-size="12" font-weight="700" fill="#4338ca">Rajan</text>
  <text x="569" y="170" text-anchor="middle" font-size="9" fill="#6366f1">senior-engineer</text>
  <text x="569" y="181" text-anchor="middle" font-size="8" fill="#818cf8">cross-cutting · architecture</text>

  <rect x="683" y="136" width="195" height="50" rx="7" fill="#eef2ff" stroke="#c7d2fe" stroke-width="1.5"/>
  <text x="780" y="156" text-anchor="middle" font-size="12" font-weight="700" fill="#4338ca">Nakul</text>
  <text x="780" y="170" text-anchor="middle" font-size="9" fill="#6366f1">debugger</text>
  <text x="780" y="181" text-anchor="middle" font-size="8" fill="#818cf8">hard bugs · root-cause analysis</text>

  <!-- SPECIALIST ROLE -->
  <line x1="40" y1="200" x2="920" y2="200" stroke="#e5e7eb" stroke-width="1"/>
  <text x="50" y="218" font-size="10" font-weight="700" fill="#0f766e" letter-spacing="0.8">DOMAIN SPECIALISTS · capable model for implementation · bounded expertise · complex work</text>

  <rect x="50" y="226" width="158" height="50" rx="7" fill="#f0fdfa" stroke="#99f6e4" stroke-width="1.5"/>
  <text x="129" y="246" text-anchor="middle" font-size="12" font-weight="700" fill="#0f766e">Deepak</text>
  <text x="129" y="260" text-anchor="middle" font-size="9" fill="#0d9488">postgres-writer</text>
  <text x="129" y="271" text-anchor="middle" font-size="8" fill="#134e4a">approved DB writes · DDL</text>

  <rect x="222" y="226" width="158" height="50" rx="7" fill="#f0fdfa" stroke="#99f6e4" stroke-width="1.5"/>
  <text x="301" y="246" text-anchor="middle" font-size="12" font-weight="700" fill="#0f766e">Tejas</text>
  <text x="301" y="260" text-anchor="middle" font-size="9" fill="#0d9488">typescript-pro</text>
  <text x="301" y="271" text-anchor="middle" font-size="8" fill="#134e4a">complex TS errors · generics</text>

  <rect x="394" y="226" width="158" height="50" rx="7" fill="#f0fdfa" stroke="#99f6e4" stroke-width="1.5"/>
  <text x="473" y="246" text-anchor="middle" font-size="12" font-weight="700" fill="#0f766e">Riya</text>
  <text x="473" y="260" text-anchor="middle" font-size="9" fill="#0d9488">react-specialist</text>
  <text x="473" y="271" text-anchor="middle" font-size="8" fill="#134e4a">re-renders · TanStack · perf</text>

  <rect x="566" y="226" width="158" height="50" rx="7" fill="#f0fdfa" stroke="#99f6e4" stroke-width="1.5"/>
  <text x="645" y="246" text-anchor="middle" font-size="12" font-weight="700" fill="#0f766e">Kritika</text>
  <text x="645" y="260" text-anchor="middle" font-size="9" fill="#0d9488">code-reviewer</text>
  <text x="645" y="271" text-anchor="middle" font-size="8" fill="#134e4a">structured PR review</text>

  <rect x="738" y="226" width="158" height="50" rx="7" fill="#f0fdfa" stroke="#99f6e4" stroke-width="1.5"/>
  <text x="817" y="246" text-anchor="middle" font-size="12" font-weight="700" fill="#0f766e">Mitra</text>
  <text x="817" y="260" text-anchor="middle" font-size="9" fill="#0d9488">code-mapper</text>
  <text x="817" y="271" text-anchor="middle" font-size="8" fill="#134e4a">large file structure maps</text>

  <rect x="50" y="286" width="158" height="50" rx="7" fill="#f0fdfa" stroke="#99f6e4" stroke-width="1.5"/>
  <text x="129" y="306" text-anchor="middle" font-size="12" font-weight="700" fill="#0f766e">Vidya</text>
  <text x="129" y="320" text-anchor="middle" font-size="9" fill="#0d9488">skill-updater</text>
  <text x="129" y="331" text-anchor="middle" font-size="8" fill="#134e4a">keep agent knowledge current</text>

  <rect x="222" y="286" width="158" height="50" rx="7" fill="#f0fdfa" stroke="#99f6e4" stroke-width="1.5"/>
  <text x="301" y="306" text-anchor="middle" font-size="12" font-weight="700" fill="#0f766e">Nisha</text>
  <text x="301" y="320" text-anchor="middle" font-size="9" fill="#0d9488">qa-engineer</text>
  <text x="301" y="331" text-anchor="middle" font-size="8" fill="#134e4a">test cases · coverage</text>

  <rect x="394" y="286" width="158" height="50" rx="7" fill="#f0fdfa" stroke="#99f6e4" stroke-width="1.5"/>
  <text x="473" y="306" text-anchor="middle" font-size="12" font-weight="700" fill="#0f766e">Ravi</text>
  <text x="473" y="320" text-anchor="middle" font-size="9" fill="#0d9488">devops-engineer</text>
  <text x="473" y="331" text-anchor="middle" font-size="8" fill="#134e4a">docker · deploy · infra</text>

  <rect x="566" y="286" width="158" height="50" rx="7" fill="#f0fdfa" stroke="#99f6e4" stroke-width="1.5"/>
  <text x="645" y="306" text-anchor="middle" font-size="12" font-weight="700" fill="#0f766e">Shiva</text>
  <text x="645" y="320" text-anchor="middle" font-size="9" fill="#0d9488">security-auditor</text>
  <text x="645" y="331" text-anchor="middle" font-size="8" fill="#134e4a">audit · threat model</text>

  <rect x="738" y="286" width="158" height="50" rx="7" fill="#f0fdfa" stroke="#99f6e4" stroke-width="1.5"/>
  <text x="817" y="306" text-anchor="middle" font-size="12" font-weight="700" fill="#0f766e">Parvati</text>
  <text x="817" y="320" text-anchor="middle" font-size="9" fill="#0d9488">security-boundary</text>
  <text x="817" y="331" text-anchor="middle" font-size="8" fill="#134e4a">RLS · trust boundaries</text>

  <!-- WORKER ROLE -->
  <line x1="40" y1="350" x2="920" y2="350" stroke="#e5e7eb" stroke-width="1"/>
  <text x="50" y="368" font-size="10" font-weight="700" fill="#c2410c" letter-spacing="0.8">WORKERS · efficient model for routine tasks · verify · grep · docs · migrate</text>

  <rect x="50" y="376" width="130" height="50" rx="7" fill="#fff7ed" stroke="#fed7aa" stroke-width="1.5"/>
  <text x="115" y="396" text-anchor="middle" font-size="12" font-weight="700" fill="#c2410c">Anand</text>
  <text x="115" y="410" text-anchor="middle" font-size="9" fill="#ea580c">verifier</text>
  <text x="115" y="421" text-anchor="middle" font-size="8" fill="#9a3412">build · test · lint</text>

  <rect x="196" y="376" width="130" height="50" rx="7" fill="#fff7ed" stroke="#fed7aa" stroke-width="1.5"/>
  <text x="261" y="396" text-anchor="middle" font-size="12" font-weight="700" fill="#c2410c">Saras</text>
  <text x="261" y="410" text-anchor="middle" font-size="9" fill="#ea580c">docs-scribe</text>
  <text x="261" y="421" text-anchor="middle" font-size="8" fill="#9a3412">doc updates from spec</text>

  <rect x="342" y="376" width="130" height="50" rx="7" fill="#fff7ed" stroke="#fed7aa" stroke-width="1.5"/>
  <text x="407" y="396" text-anchor="middle" font-size="12" font-weight="700" fill="#c2410c">Gita</text>
  <text x="407" y="410" text-anchor="middle" font-size="9" fill="#ea580c">grep-reporter</text>
  <text x="407" y="421" text-anchor="middle" font-size="8" fill="#9a3412">batch search · compile</text>

  <rect x="488" y="376" width="130" height="50" rx="7" fill="#fff7ed" stroke="#fed7aa" stroke-width="1.5"/>
  <text x="553" y="396" text-anchor="middle" font-size="12" font-weight="700" fill="#c2410c">Prasad</text>
  <text x="553" y="410" text-anchor="middle" font-size="9" fill="#ea580c">postgres-pro</text>
  <text x="553" y="421" text-anchor="middle" font-size="8" fill="#9a3412">read-only DB · EXPLAIN</text>

  <rect x="634" y="376" width="130" height="50" rx="7" fill="#fff7ed" stroke="#fed7aa" stroke-width="1.5"/>
  <text x="699" y="396" text-anchor="middle" font-size="12" font-weight="700" fill="#c2410c">Kavya</text>
  <text x="699" y="410" text-anchor="middle" font-size="9" fill="#ea580c">comms-manager</text>
  <text x="699" y="421" text-anchor="middle" font-size="8" fill="#9a3412">status updates</text>

  <rect x="780" y="376" width="130" height="50" rx="7" fill="#fff7ed" stroke="#fed7aa" stroke-width="1.5"/>
  <text x="845" y="396" text-anchor="middle" font-size="12" font-weight="700" fill="#c2410c">Asha</text>
  <text x="845" y="410" text-anchor="middle" font-size="9" fill="#ea580c">accessibility</text>
  <text x="845" y="421" text-anchor="middle" font-size="8" fill="#9a3412">WCAG · a11y audit</text>

  <!-- Footer -->
  <line x1="40" y1="440" x2="920" y2="440" stroke="#e5e7eb" stroke-width="1"/>
  <text x="480" y="460" text-anchor="middle" font-size="9" fill="#9ca3af">Starter roster — recruit domain specialists via docs/recruit-your-agents.md · HR approval required for each new hire</text>
  <text x="480" y="476" text-anchor="middle" font-size="9" fill="#9ca3af">Delegation briefs: docs/writing-delegation-briefs.md · Learning methodology: docs/learning-methodology.md</text>
</svg>
